<?xml version="1.0" encoding="utf-8"?><svg version="1.1" id="Layer_1" xmlns="http://www.w3.org/2000/svg" xmlns:xlink="http://www.w3.org/1999/xlink" x="0px" y="0px" viewBox="0 0 122.88 112.56" style="enable-background:new 0 0 122.88 112.56" xml:space="preserve"><g><path d="M54.26,35.78l23.85,35.39c3.96,5.85,6.77,9.42,8.44,10.68c1.67,1.24,3.68,2,5.96,2.26v2.35H50.36v-2.35 c3.37-0.26,5.53-0.78,6.51-1.55c0.98-0.76,1.48-1.7,1.48-2.81c0-0.76-0.15-1.44-0.46-2.03c-0.59-1.28-2.09-3.66-4.46-7.16 L40.81,51.91L27.62,68.03c-3.96,4.9-5.94,8.2-5.94,9.95c0,1.24,0.52,2.39,1.52,3.46c1.02,1.05,2.55,1.83,4.53,2.29 c0.89,0.26,2.72,0.39,5.48,0.39v2.35H0v-2.35c3.79-0.57,6.77-1.59,8.92-3.07c2.85-1.96,6.83-6.03,11.93-12.25L38,47.9L16,15.56 c-3.61-5.31-5.66-8.27-6.18-8.86c-1.15-1.39-2.26-2.4-3.37-3C5.33,3.11,3.81,2.66,1.85,2.37V0h42.92v2.37h-2.18 c-2.46,0-4.18,0.39-5.16,1.18c-0.98,0.78-1.48,1.76-1.48,2.96c0,0.93,0.15,1.74,0.46,2.42l4.4,6.64l10.71,16.32l9.12-11.16 c4.68-5.72,7.01-9.75,7.01-12.03c0-1.15-0.33-2.22-0.98-3.2c-0.65-0.98-1.61-1.74-2.83-2.28c-1.24-0.57-3.16-0.83-5.75-0.83V0 h31.82v2.37c-2.5,0.04-4.53,0.35-6.05,0.91c-1.55,0.59-3.18,1.65-4.92,3.22c-1.11,1.02-3.87,4.2-8.29,9.51L54.26,35.78L54.26,35.78 z M120.44,112.56H95v-0.7c7.81-9.29,12.54-15.54,14.21-18.76c1.65-3.2,2.5-6.33,2.5-9.4c0-2.22-0.7-4.07-2.07-5.55 c-1.39-1.48-3.09-2.22-5.07-2.22c-3.29,0-5.81,1.63-7.62,4.9l-1.2-0.41c1.15-4.07,2.89-7.09,5.25-9.05 c2.33-1.94,5.03-2.92,8.1-2.92c2.18,0,4.18,0.5,5.99,1.52c1.81,1.02,3.22,2.42,4.24,4.2c1.02,1.76,1.52,3.44,1.52,4.98 c0,2.83-0.78,5.7-2.35,8.6c-2.15,3.94-6.83,9.42-14.06,16.45h9.34c2.31,0,3.79-0.09,4.48-0.28c0.7-0.2,1.26-0.52,1.7-0.98 c0.46-0.46,1.04-1.41,1.76-2.87h1.15L120.44,112.56L120.44,112.56z"/></g></svg>